<svg xmlns="http://www.w3.org/2000/svg" viewBox="0 0 420 340" role="img" aria-labelledby="title desc">
  <title id="title">Fleet</title>
  <desc id="desc">Abstract project thumbnail for an LLM observability and governance platform.</desc>
  <defs>
    <linearGradient id="bg" x1="0%" y1="0%" x2="100%" y2="100%">
      <stop offset="0%" stop-color="#102542" />
      <stop offset="52%" stop-color="#1b3c73" />
      <stop offset="100%" stop-color="#2d6a8f" />
    </linearGradient>
    <linearGradient id="accent" x1="0%" y1="0%" x2="100%" y2="0%">
      <stop offset="0%" stop-color="#f7b267" />
      <stop offset="100%" stop-color="#f4845f" />
    </linearGradient>
  </defs>
  <rect width="420" height="340" fill="url(#bg)" rx="28" />
  <circle cx="338" cy="74" r="74" fill="#3cb7a0" opacity="0.2" />
  <circle cx="78" cy="285" r="88" fill="#f7b267" opacity="0.16" />
  <rect x="42" y="44" width="152" height="18" rx="9" fill="#ffffff" opacity="0.18" />
  <rect x="42" y="88" width="240" height="136" rx="24" fill="#0b1a31" opacity="0.7" />
  <rect x="62" y="110" width="92" height="12" rx="6" fill="#ffffff" opacity="0.9" />
  <rect x="62" y="136" width="178" height="10" rx="5" fill="#8ecae6" opacity="0.95" />
  <rect x="62" y="160" width="144" height="10" rx="5" fill="#8ecae6" opacity="0.75" />
  <rect x="62" y="196" width="70" height="14" rx="7" fill="url(#accent)" />
  <rect x="294" y="118" width="86" height="142" rx="24" fill="#ffffff" opacity="0.1" />
  <rect x="316" y="140" width="42" height="76" rx="14" fill="#3cb7a0" opacity="0.95" />
  <path d="M337 156v44" stroke="#0b1a31" stroke-width="6" stroke-linecap="round" />
  <path d="M322 171h30" stroke="#0b1a31" stroke-width="6" stroke-linecap="round" />
  <text x="42" y="276" fill="#f5f7fa" font-family="Rubik, Arial, sans-serif" font-size="34" font-weight="700">
    Fleet
  </text>
  <text x="42" y="304" fill="#dce8f2" font-family="Rubik, Arial, sans-serif" font-size="16">
    Observability, proxy controls, policy enforcement
  </text>
</svg>
