<svg xmlns="http://www.w3.org/2000/svg" viewBox="0 0 420 340" role="img" aria-labelledby="title desc">
  <title id="title">Medical Coding AI Agent</title>
  <desc id="desc">Abstract project thumbnail for a medical coding AI workflow.</desc>
  <defs>
    <linearGradient id="bg" x1="0%" y1="0%" x2="100%" y2="100%">
      <stop offset="0%" stop-color="#16324f" />
      <stop offset="50%" stop-color="#255f85" />
      <stop offset="100%" stop-color="#4f9d69" />
    </linearGradient>
    <linearGradient id="chip" x1="0%" y1="0%" x2="100%" y2="0%">
      <stop offset="0%" stop-color="#f7d08a" />
      <stop offset="100%" stop-color="#f79d65" />
    </linearGradient>
  </defs>
  <rect width="420" height="340" fill="url(#bg)" rx="28" />
  <circle cx="350" cy="72" r="84" fill="#ffffff" opacity="0.08" />
  <circle cx="62" cy="46" r="44" fill="#f7d08a" opacity="0.16" />
  <rect x="40" y="56" width="216" height="170" rx="26" fill="#ffffff" opacity="0.12" />
  <rect x="62" y="84" width="172" height="118" rx="20" fill="#f8fbfd" opacity="0.9" />
  <rect x="84" y="104" width="72" height="12" rx="6" fill="#255f85" opacity="0.9" />
  <rect x="84" y="128" width="128" height="10" rx="5" fill="#6b879f" opacity="0.8" />
  <rect x="84" y="150" width="112" height="10" rx="5" fill="#6b879f" opacity="0.6" />
  <path d="M114 186c16-28 34-42 54-42 18 0 33 10 47 30" fill="none" stroke="#255f85" stroke-width="10" stroke-linecap="round" />
  <circle cx="132" cy="186" r="12" fill="#4f9d69" />
  <circle cx="192" cy="152" r="12" fill="#4f9d69" />
  <circle cx="236" cy="174" r="12" fill="#f79d65" />
  <rect x="284" y="102" width="96" height="124" rx="24" fill="#0f2235" opacity="0.38" />
  <rect x="306" y="128" width="52" height="14" rx="7" fill="url(#chip)" />
  <rect x="306" y="154" width="68" height="10" rx="5" fill="#ffffff" opacity="0.72" />
  <rect x="306" y="176" width="58" height="10" rx="5" fill="#ffffff" opacity="0.48" />
  <rect x="306" y="196" width="38" height="10" rx="5" fill="#ffffff" opacity="0.32" />
  <text x="40" y="276" fill="#f5f7fa" font-family="Rubik, Arial, sans-serif" font-size="30" font-weight="700">
    Medical Coding AI Agent
  </text>
  <text x="40" y="304" fill="#d6e6ee" font-family="Rubik, Arial, sans-serif" font-size="16">
    LangGraph workflow with RAG and review loops
  </text>
</svg>
