<svg xmlns="http://www.w3.org/2000/svg" xmlns:xlink="http://www.w3.org/1999/xlink" width="500" zoomAndPan="magnify" viewBox="0 0 375 374.999991" height="500" preserveAspectRatio="xMidYMid meet" version="1.0"><defs><g/></defs><g fill="#353252" fill-opacity="1"><g transform="translate(31.132836, 265.614374)"><g><path d="M 146.46875 -203.828125 L 200.625 -203.828125 C 202.375 -203.828125 203.878906 -203.195312 205.140625 -201.9375 C 206.398438 -200.675781 207.03125 -199.460938 207.03125 -198.296875 C 207.03125 -197.128906 206.9375 -196.160156 206.75 -195.390625 L 152 -9.609375 C 150.25 -3.203125 145.878906 0 138.890625 0 L 72.5 0 C 65.507812 0 61.144531 -3.203125 59.40625 -9.609375 L 4.65625 -195.390625 C 4.46875 -196.160156 4.375 -197.128906 4.375 -198.296875 C 4.375 -199.460938 5.003906 -200.675781 6.265625 -201.9375 C 7.523438 -203.195312 9.03125 -203.828125 10.78125 -203.828125 L 64.9375 -203.828125 C 71.925781 -203.828125 76.289062 -200.625 78.03125 -194.21875 L 105.703125 -85.90625 L 133.359375 -194.21875 C 135.109375 -200.625 139.476562 -203.828125 146.46875 -203.828125 Z M 146.46875 -203.828125 "/></g></g></g><g fill="#ff4d61" fill-opacity="1"><g transform="translate(242.529077, 265.614374)"><g><path d="M 25.328125 -66.390625 L 76 -66.390625 C 78.132812 -66.390625 79.976562 -65.613281 81.53125 -64.0625 C 83.082031 -62.507812 83.859375 -60.664062 83.859375 -58.53125 L 83.859375 -7.859375 C 83.859375 -5.722656 83.082031 -3.878906 81.53125 -2.328125 C 79.976562 -0.773438 78.132812 0 76 0 L 25.328125 0 C 23.191406 0 21.347656 -0.773438 19.796875 -2.328125 C 18.242188 -3.878906 17.46875 -5.722656 17.46875 -7.859375 L 17.46875 -58.53125 C 17.46875 -60.664062 18.242188 -62.507812 19.796875 -64.0625 C 21.347656 -65.613281 23.191406 -66.390625 25.328125 -66.390625 Z M 25.328125 -66.390625 "/></g></g></g></svg>